<svg width="1400" height="900" viewBox="0 0 1400 900" xmlns="http://www.w3.org/2000/svg">
  <defs>
    <linearGradient id="bg" x1="0" y1="0" x2="1" y2="1">
      <stop offset="0%" stop-color="#0F3D4C"/>
      <stop offset="100%" stop-color="#2F7D67"/>
    </linearGradient>
  </defs>
  <rect width="1400" height="900" fill="url(#bg)"/>
  <rect x="80" y="70" width="1240" height="760" rx="36" fill="#FFFFFF" opacity="0.96"/>

  <text x="120" y="130" font-family="Arial, sans-serif" font-size="30" fill="#0F3D4C" font-weight="700">HarborFresh Backend</text>
  <text x="120" y="165" font-family="Arial, sans-serif" font-size="16" fill="#5B6B74">API Overview • Admin • Seller • Customer</text>

  <rect x="120" y="210" width="520" height="520" rx="24" fill="#F4F7F9"/>
  <rect x="680" y="210" width="560" height="240" rx="24" fill="#F4F7F9"/>
  <rect x="680" y="490" width="560" height="240" rx="24" fill="#F4F7F9"/>

  <rect x="160" y="250" width="440" height="60" rx="16" fill="#CFECEF"/>
  <rect x="160" y="330" width="440" height="60" rx="16" fill="#FFE3D1"/>
  <rect x="160" y="410" width="440" height="60" rx="16" fill="#C8F0E2"/>
  <rect x="160" y="490" width="440" height="60" rx="16" fill="#E6ECEF"/>

  <rect x="720" y="250" width="480" height="40" rx="12" fill="#0F3D4C"/>
  <rect x="720" y="310" width="360" height="16" rx="8" fill="#5B6B74"/>
  <rect x="720" y="530" width="480" height="40" rx="12" fill="#0F3D4C"/>
  <rect x="720" y="590" width="360" height="16" rx="8" fill="#5B6B74"/>
</svg>
